# xmcd
# 
# Track frame offsets:
#     150
#     15427
#     28027
#     41647
#     55217
#     66140
#     88287
#     106322
#     120130
#     133905
#     149305
#     165810
#     175552
#     185942
#     197060
#     208647
#     221422
#     236147
#     257232
#     275552
# 
# Disc length: 3880
# 
# Revision: 1
# Processed by: cddbd v1.5.2PL0 Copyright (c) Steve Scherf et al.
# Submitted via: fre:ac v1.0.17
# 
DISCID=230f2614
DTITLE=Various Artist - Live: The Hits And More
DYEAR=1994
DGENRE=Country
TTITLE0=Merle Haggard - Okie From Muskogee
TTITLE1=Merle Haggard - If You Want To Be My Woman
TTITLE2=Freddy Weller - Games People Play
TTITLE3=Merle Haggard - Workin' Man's Blues
TTITLE4=Merle Haggard - Corinne, Corinna
TTITLE5=Merle Haggard - The Bottle Let Me Down
TTITLE6=Merle Haggard - What Am I Gonna Do
TTITLE7=Merle Haggard - Mama Tried
TTITLE8=Merle Haggard - That's The Way Love Goes
TTITLE9=Merle Haggard - San Antonio Rose
TTITLE10=Merle Haggard - Ramblin' Fever
TTITLE11=Merle Haggard - Take Me Back To Tulsa
TTITLE12=Merle Haggard - Ida Red
TTITLE13=Merle Haggard - Begging To You
TTITLE14=Merle Haggard - Always Late
TTITLE15=Merle Haggard - Big City
TTITLE16=Merle Haggard - Folsom Prison Blues
TTITLE17=Merle Haggard - Medley: Brain Cloudy Blues - Milk Cow Blues
TTITLE18=Merle Haggard - Footlights
TTITLE19=Merle Haggard - Today I Started Loving You Again
EXTD=YEAR: 1994 ID3G: 2
EXTT0=
EXTT1=
EXTT2=
EXTT3=
EXTT4=
EXTT5=
EXTT6=
EXTT7=
EXTT8=
EXTT9=
EXTT10=
EXTT11=
EXTT12=
EXTT13=
EXTT14=
EXTT15=
EXTT16=
EXTT17=
EXTT18=
EXTT19=
PLAYORDER=
